<svg width="96" height="96" xmlns="http://www.w3.org/2000/svg" xmlns:xlink="http://www.w3.org/1999/xlink" overflow="hidden"><defs><clipPath id="clip0"><rect x="611" y="308" width="96" height="96"/></clipPath></defs><g clip-path="url(#clip0)" transform="translate(-611 -308)"><path d="M628 371 690 371 690 385 628 385Z"/><path d="M697.551 339.48C696.06 339.714 694.596 340.095 693.18 340.617 691.23 341.46 689.466 342.682 687.991 344.211 687.069 345.112 685.879 345.687 684.6 345.849L680.186 346.449C679.912 346.486 679.66 346.294 679.623 346.021 679.612 345.938 679.622 345.853 679.652 345.774L680.378 343.885C680.463 343.663 680.594 343.462 680.762 343.294L685.33 338.725C685.991 338.062 685.991 336.988 685.33 336.325L680.488 331.482C679.825 330.821 678.751 330.821 678.088 331.482L673.246 336.325C672.585 336.988 672.585 338.062 673.246 338.725L673.346 338.825C673.816 339.295 673.969 339.996 673.737 340.619L671.443 346.74C671.224 347.326 670.701 347.743 670.081 347.828L669.181 347.95C668.965 347.979 668.755 347.866 668.662 347.669L664.96 339.828C664.655 339.178 664.791 338.406 665.3 337.9L669.132 334.067C669.793 333.404 669.793 332.33 669.132 331.667L660.2 322.744C659.537 322.083 658.463 322.083 657.8 322.744L648.875 331.669C648.214 332.332 648.214 333.406 648.875 334.069L652.729 337.924C653.235 338.431 653.369 339.201 653.064 339.849L649.369 347.668C649.276 347.865 649.065 347.979 648.849 347.949L647.949 347.827C647.33 347.742 646.807 347.324 646.588 346.739L644.302 340.617C644.07 339.994 644.222 339.293 644.692 338.823L644.792 338.723C645.453 338.06 645.453 336.986 644.792 336.323L639.958 331.489C639.295 330.828 638.221 330.828 637.558 331.489L632.724 336.323C632.063 336.986 632.063 338.06 632.724 338.723L637.263 343.263C637.432 343.431 637.563 343.632 637.648 343.854L638.384 345.772C638.483 346.03 638.355 346.319 638.097 346.418 638.018 346.448 637.933 346.458 637.85 346.447L633.4 345.843C632.119 345.683 630.924 345.108 630 344.206 628.526 342.679 626.764 341.459 624.816 340.617 623.401 340.095 621.939 339.714 620.449 339.48 619.904 339.39 619.389 339.758 619.299 340.303 619.246 340.625 619.353 340.952 619.585 341.18 622.501 343.874 624.705 347.247 626 351 627.23 355.11 627.903 359.367 628 363.656L628 365.3C628 366.239 628.761 367 629.7 367L688.3 367C689.239 367 690 366.239 690 365.3L690 363.656C690.097 359.367 690.77 355.11 692 351 693.295 347.248 695.499 343.875 698.415 341.182 698.81 340.796 698.818 340.163 698.432 339.768 698.204 339.533 697.874 339.426 697.551 339.48ZM638.761 339.812 636.477 337.527 638.761 335.243 641.045 337.527ZM659 337.124 654.748 332.87 659 328.615 663.254 332.87ZM676.989 337.524 679.282 335.231 681.576 337.524 679.284 339.82Z"/></g></svg>