<svg width="43" height="43" xmlns="http://www.w3.org/2000/svg" xmlns:xlink="http://www.w3.org/1999/xlink" overflow="hidden"><defs><clipPath id="clip0"><rect x="64" y="460" width="43" height="43"/></clipPath></defs><g clip-path="url(#clip0)" transform="translate(-64 -460)"><path d="M100.366 492.783C97.8446 491.52 94.0597 488.304 93.7014 476.376 93.5715 471.991 90.8526 470.105 88.5772 469.299 88.6621 469.008 88.7043 468.706 88.7026 468.403 88.7026 466.634 87.2687 465.2 85.5 465.2 83.7313 465.2 82.2974 466.634 82.2974 468.403 82.2957 468.706 82.3379 469.008 82.4228 469.299 80.1474 470.105 77.4285 471.986 77.2986 476.376 76.9403 488.29 73.1554 491.515 70.6336 492.779 69.6079 493.289 70.123 494.49 70.7188 494.49L82.1406 494.49C82.3325 496.345 83.9921 497.693 85.8474 497.502 87.4378 497.337 88.6949 496.08 88.8594 494.49L100.281 494.49C100.877 494.49 101.392 493.294 100.366 492.783ZM84.0891 468.425C84.0891 467.646 84.7208 467.014 85.5 467.014 86.2792 467.014 86.9109 467.646 86.9109 468.425 86.909 468.567 86.8864 468.707 86.8438 468.842 86.4005 468.756 85.9512 468.705 85.5 468.69L85.5 468.69C85.049 468.708 84.5999 468.759 84.1562 468.842 84.1128 468.707 84.0902 468.567 84.0891 468.425Z" fill="#AFABAB"/></g></svg>