<svg width="45" height="45" xmlns="http://www.w3.org/2000/svg" xmlns:xlink="http://www.w3.org/1999/xlink" overflow="hidden"><defs><clipPath id="clip0"><rect x="64" y="391" width="45" height="45"/></clipPath></defs><g clip-path="url(#clip0)" transform="translate(-64 -391)"><path d="M79.4688 405.438C79.4688 407.767 77.5799 409.656 75.25 409.656 72.9201 409.656 71.0312 407.767 71.0312 405.438 71.0312 403.108 72.9201 401.219 75.25 401.219 77.5799 401.219 79.4688 403.108 79.4688 405.438Z" fill="#AFABAB"/><path d="M101.969 405.438C101.969 407.767 100.08 409.656 97.75 409.656 95.42 409.656 93.5312 407.767 93.5312 405.438 93.5312 403.108 95.42 401.219 97.75 401.219 100.08 401.219 101.969 403.108 101.969 405.438Z" fill="#AFABAB"/><path d="M94.9375 425.781 94.9375 421.562C94.9375 420.906 94.6562 420.25 94.0938 419.875 92.9688 418.938 91.4688 418.281 89.9688 417.906 88.9375 417.625 87.7188 417.344 86.5 417.344 85.375 417.344 84.1562 417.531 83.0312 417.906 81.5312 418.281 80.125 419.031 78.9062 419.875 78.3438 420.344 78.0625 420.906 78.0625 421.562L78.0625 425.781 94.9375 425.781Z" fill="#AFABAB"/><path d="M90.7188 412C90.7188 414.33 88.8299 416.219 86.5 416.219 84.1701 416.219 82.2812 414.33 82.2812 412 82.2812 409.67 84.1701 407.781 86.5 407.781 88.8299 407.781 90.7188 409.67 90.7188 412Z" fill="#AFABAB"/><path d="M105.344 413.312C104.219 412.375 102.719 411.719 101.219 411.344 100.188 411.062 98.9688 410.781 97.75 410.781 96.625 410.781 95.4062 410.969 94.2812 411.344 93.7188 411.531 93.1562 411.719 92.5938 412L92.5938 412.094C92.5938 413.688 91.9375 415.188 90.9062 416.219 92.6875 416.781 94.0938 417.531 95.2188 418.375 95.5 418.656 95.7812 418.844 95.9688 419.219L106.188 419.219 106.188 415C106.188 414.344 105.906 413.688 105.344 413.312Z" fill="#AFABAB"/><path d="M77.7812 418.375 77.7812 418.375C79.0938 417.438 80.5938 416.688 82.0938 416.219 81.0625 415.094 80.4062 413.688 80.4062 412.094 80.4062 412 80.4062 412 80.4062 411.906 79.8438 411.719 79.2812 411.438 78.7188 411.344 77.6875 411.062 76.4688 410.781 75.25 410.781 74.125 410.781 72.9062 410.969 71.7812 411.344 70.2812 411.812 68.875 412.469 67.6562 413.312 67.0938 413.688 66.8125 414.344 66.8125 415L66.8125 419.219 76.9375 419.219C77.2188 418.844 77.4062 418.656 77.7812 418.375Z" fill="#AFABAB"/></g></svg>