<svg width="85" height="85" xmlns="http://www.w3.org/2000/svg" xmlns:xlink="http://www.w3.org/1999/xlink" overflow="hidden"><defs><clipPath id="clip0"><rect x="342" y="304" width="85" height="85"/></clipPath></defs><g clip-path="url(#clip0)" transform="translate(-342 -304)"><path d="M386.271 330.562 382.729 330.562C380.781 330.562 379.188 328.969 379.188 327.021L379.188 319.938C379.188 317.99 380.781 316.396 382.729 316.396L386.271 316.396C388.219 316.396 389.812 317.99 389.812 319.938L389.812 327.021C389.812 328.969 388.219 330.562 386.271 330.562Z"/><path d="M412.833 348.271 391.583 348.271 391.583 344.729 412.833 344.729 412.833 348.271ZM412.833 358.896 391.583 358.896 391.583 355.354 412.833 355.354 412.833 358.896ZM412.833 369.521 391.583 369.521 391.583 365.979 412.833 365.979 412.833 369.521ZM384.5 369.521 356.167 369.521 356.167 362.438C356.167 361.375 356.698 360.312 357.583 359.604 359.531 358.188 362.01 356.948 364.49 356.24 366.438 355.708 368.385 355.354 370.333 355.354 372.458 355.354 374.406 355.708 376.177 356.24 378.656 356.948 381.135 358.01 383.083 359.604 383.969 360.312 384.5 361.375 384.5 362.438L384.5 369.521ZM370.333 339.417C374.229 339.417 377.417 342.604 377.417 346.5 377.417 350.396 374.229 353.583 370.333 353.583 366.438 353.583 363.25 350.396 363.25 346.5 363.25 342.604 366.438 339.417 370.333 339.417ZM416.375 327.021 393.354 327.021C393.354 330.917 390.167 334.104 386.271 334.104L382.729 334.104C378.833 334.104 375.646 330.917 375.646 327.021L352.625 327.021C350.677 327.021 349.083 328.615 349.083 330.562L349.083 373.062C349.083 375.01 350.677 376.604 352.625 376.604L416.375 376.604C418.323 376.604 419.917 375.01 419.917 373.062L419.917 330.562C419.917 328.615 418.323 327.021 416.375 327.021Z"/></g></svg>