<svg width="43" height="43" xmlns="http://www.w3.org/2000/svg" xmlns:xlink="http://www.w3.org/1999/xlink" overflow="hidden"><defs><clipPath id="clip0"><rect x="64" y="526" width="43" height="43"/></clipPath></defs><g clip-path="url(#clip0)" transform="translate(-64 -526)"><path d="M92.6667 539.438C92.6667 543.396 89.458 546.604 85.5 546.604 81.542 546.604 78.3333 543.396 78.3333 539.438 78.3333 535.479 81.542 532.271 85.5 532.271 89.458 532.271 92.6667 535.479 92.6667 539.438Z" fill="#AFABAB"/><path d="M99.8333 562.729 99.8333 555.562C99.8333 554.487 99.2958 553.412 98.4 552.696 96.4292 551.083 93.9208 550.008 91.4125 549.292 89.6208 548.754 87.65 548.396 85.5 548.396 83.5292 548.396 81.5583 548.754 79.5875 549.292 77.0792 550.008 74.5708 551.263 72.6 552.696 71.7042 553.412 71.1667 554.487 71.1667 555.562L71.1667 562.729 99.8333 562.729Z" fill="#AFABAB"/></g></svg>