<svg width="38" height="38" xmlns="http://www.w3.org/2000/svg" xmlns:xlink="http://www.w3.org/1999/xlink" overflow="hidden"><defs><clipPath id="clip0"><rect x="1027" y="180" width="38" height="38"/></clipPath></defs><g clip-path="url(#clip0)" transform="translate(-1027 -180)"><path d="M1045.99 183.958C1037.69 183.958 1030.96 190.689 1030.96 198.992 1030.96 207.294 1037.69 214.025 1045.99 214.025 1054.29 214.025 1061.03 207.294 1061.03 198.992 1061.03 198.991 1061.03 198.991 1061.03 198.991 1061.03 190.691 1054.3 183.961 1046 183.958 1046 183.958 1046 183.958 1045.99 183.958ZM1049.63 199.71C1047.44 201.896 1045.24 204.102 1043.02 206.327 1041.14 204.434 1039.25 202.546 1037.36 200.663L1039.25 198.77 1043.02 202.542C1044.85 200.684 1046.67 198.84 1048.49 197.009 1050.29 195.177 1051.3 194.195 1053.17 192.381 1053.23 192.328 1053.28 192.276 1053.34 192.223 1053.4 192.172 1053.46 192.115 1053.5 192.052L1055.42 193.944C1053.19 196.161 1051.82 197.522 1049.63 199.709Z" fill="#0070C0"/></g></svg>