<svg width="96" height="96" xmlns="http://www.w3.org/2000/svg" xmlns:xlink="http://www.w3.org/1999/xlink" overflow="hidden"><defs><clipPath id="clip0"><rect x="801" y="285" width="96" height="96"/></clipPath></defs><g clip-path="url(#clip0)" transform="translate(-801 -285)"><path d="M874 367 824 367 824 305 835 305 835 311 863 311 863 305 874 305ZM849 297C850.657 297 852 298.343 852 300 852 301.657 850.657 303 849 303 847.343 303 846 301.657 846 300 845.973 298.37 847.272 297.027 848.901 297 848.934 296.999 848.967 296.999 849 297ZM876 299 859 299 859 297C859 294.791 857.209 293 855 293L843 293C840.791 293 839 294.791 839 297L839 299 822 299C819.791 299 818 300.791 818 303L818 369C818 371.209 819.791 373 822 373L876 373C878.209 373 880 371.209 880 369L880 303C880 300.791 878.209 299 876 299Z"/><path d="M851 319 868 319 868 323 851 323Z"/><path d="M851 331 868 331 868 335 851 335Z"/><path d="M851 343 868 343 868 347 851 347Z"/><path d="M851 355 868 355 868 359 851 359Z"/><path d="M832.5 341.5 839.5 341.5 839.5 348.5 832.5 348.5Z"/><path d="M832.5 353.5 839.5 353.5 839.5 360.5 832.5 360.5Z"/><path d="M830.707 320.8 832.8 318.707 835.4 321.307 842 314.707 844.093 316.8 835.4 325.493 830.707 320.8Z"/><path d="M830.707 332.8 832.8 330.707 835.4 333.307 842 326.707 844.093 328.8 835.4 337.493 830.707 332.8Z"/></g></svg>