<svg width="51" height="50" xmlns="http://www.w3.org/2000/svg" xmlns:xlink="http://www.w3.org/1999/xlink" overflow="hidden"><defs><clipPath id="clip0"><rect x="37" y="42" width="51" height="50"/></clipPath></defs><g clip-path="url(#clip0)" transform="translate(-37 -42)"><path d="M30.2083 13.5417C29.3229 13.5417 28.6458 12.8646 28.6458 11.9792 28.6458 11.0937 29.3229 10.4167 30.2083 10.4167 31.0938 10.4167 31.7708 11.0937 31.7708 11.9792 31.7708 12.8646 31.0938 13.5417 30.2083 13.5417ZM30.2083 18.75C29.3229 18.75 28.6458 18.0729 28.6458 17.1875 28.6458 16.3021 29.3229 15.625 30.2083 15.625 31.0938 15.625 31.7708 16.3021 31.7708 17.1875 31.7708 18.0729 31.0938 18.75 30.2083 18.75ZM30.2083 23.9583C29.3229 23.9583 28.6458 23.2812 28.6458 22.3958 28.6458 21.5104 29.3229 20.8333 30.2083 20.8333 31.0938 20.8333 31.7708 21.5104 31.7708 22.3958 31.7708 23.2812 31.0938 23.9583 30.2083 23.9583ZM30.7812 35.625 28.4896 36.7708C28.3333 36.875 28.125 36.7188 28.125 36.5625L28.125 34.2708C28.125 34.0625 28.3333 33.9583 28.4896 34.0625L30.7812 35.2083C30.9896 35.2604 30.9896 35.5729 30.7812 35.625ZM25 13.5417C24.1146 13.5417 23.4375 12.8646 23.4375 11.9792 23.4375 11.0937 24.1146 10.4167 25 10.4167 25.8854 10.4167 26.5625 11.0937 26.5625 11.9792 26.5625 12.8646 25.8854 13.5417 25 13.5417ZM25 18.75C24.1146 18.75 23.4375 18.0729 23.4375 17.1875 23.4375 16.3021 24.1146 15.625 25 15.625 25.8854 15.625 26.5625 16.3021 26.5625 17.1875 26.5625 18.0729 25.8854 18.75 25 18.75ZM25 23.9583C24.1146 23.9583 23.4375 23.2812 23.4375 22.3958 23.4375 21.5104 24.1146 20.8333 25 20.8333 25.8854 20.8333 26.5625 21.5104 26.5625 22.3958 26.5625 23.2812 25.8854 23.9583 25 23.9583ZM23.6458 31.9271 24.7917 29.6354C24.8958 29.4271 25.1562 29.4271 25.2604 29.6354L26.4062 31.9271C26.5104 32.0833 26.3542 32.2917 26.1979 32.2917L23.9062 32.2917C23.6458 32.2917 23.5417 32.0833 23.6458 31.9271ZM25 36.9792C24.1146 36.9792 23.4375 36.3021 23.4375 35.4167 23.4375 34.5312 24.1146 33.8542 25 33.8542 25.8854 33.8542 26.5625 34.5312 26.5625 35.4167 26.5625 36.3021 25.8854 36.9792 25 36.9792ZM26.3542 38.9062 25.2083 41.1979C25.1042 41.4062 24.8438 41.4062 24.7396 41.1979L23.5937 38.9062C23.4896 38.75 23.6458 38.5417 23.8021 38.5417L26.0937 38.5417C26.3542 38.5417 26.4583 38.75 26.3542 38.9062ZM21.875 36.5625C21.875 36.7708 21.6667 36.875 21.5104 36.7708L19.2188 35.625C19.0104 35.5208 19.0104 35.2604 19.2188 35.1562L21.5104 34.0104C21.6667 33.9062 21.875 34.0625 21.875 34.2187L21.875 36.5625ZM18.2292 22.3958C18.2292 21.5104 18.9062 20.8333 19.7917 20.8333 20.6771 20.8333 21.3542 21.5104 21.3542 22.3958 21.3542 23.2812 20.6771 23.9583 19.7917 23.9583 18.9062 23.9583 18.2292 23.2812 18.2292 22.3958ZM19.7917 15.625C20.6771 15.625 21.3542 16.3021 21.3542 17.1875 21.3542 18.0729 20.6771 18.75 19.7917 18.75 18.9062 18.75 18.2292 18.0729 18.2292 17.1875 18.2292 16.3021 18.9062 15.625 19.7917 15.625ZM19.7917 10.4167C20.6771 10.4167 21.3542 11.0937 21.3542 11.9792 21.3542 12.8646 20.6771 13.5417 19.7917 13.5417 18.9062 13.5417 18.2292 12.8646 18.2292 11.9792 18.2292 11.0937 18.9062 10.4167 19.7917 10.4167ZM32.8125 2.08333 17.1875 2.08333C16.0417 2.08333 15.1042 3.02083 15.1042 4.16667L15.1042 45.8333C15.1042 46.9792 16.0417 47.9167 17.1875 47.9167L32.8125 47.9167C33.9583 47.9167 34.8958 46.9792 34.8958 45.8333L34.8958 4.16667C34.8958 3.02083 33.9583 2.08333 32.8125 2.08333Z" transform="matrix(1.02 0 0 1 37 42)"/></g></svg>