<svg width="43" height="43" xmlns="http://www.w3.org/2000/svg" xmlns:xlink="http://www.w3.org/1999/xlink" overflow="hidden"><defs><clipPath id="clip0"><rect x="64" y="324" width="43" height="43"/></clipPath></defs><g clip-path="url(#clip0)" transform="translate(-64 -324)"><path d="M76.9896 335.646C77.751 335.646 78.3333 335.064 78.3333 334.302L78.3333 331.615C78.3333 330.853 77.751 330.271 76.9896 330.271 76.2281 330.271 75.6458 330.853 75.6458 331.615L75.6458 334.302C75.6458 335.064 76.2281 335.646 76.9896 335.646Z" fill="#AFABAB"/><path d="M72.9583 354.458 80.125 354.458 80.125 358.042 72.9583 358.042 72.9583 354.458ZM72.9583 349.083 80.125 349.083 80.125 352.667 72.9583 352.667 72.9583 349.083ZM72.9583 343.708 80.125 343.708 80.125 347.292 72.9583 347.292 72.9583 343.708ZM89.0833 343.708 89.0833 347.292 81.9167 347.292 81.9167 343.708 89.0833 343.708ZM98.0417 343.708 98.0417 347.292 90.875 347.292 90.875 343.708 98.0417 343.708ZM98.0417 352.667 90.875 352.667 90.875 349.083 98.0417 349.083 98.0417 352.667ZM98.0417 358.042 90.875 358.042 90.875 354.458 98.0417 354.458 98.0417 358.042ZM81.9167 352.667 81.9167 349.083 89.0833 349.083 89.0833 352.667 81.9167 352.667ZM81.9167 358.042 81.9167 354.458 89.0833 354.458 89.0833 358.042 81.9167 358.042ZM70.2708 360.729 100.729 360.729 100.729 341.021 70.2708 341.021 70.2708 360.729Z" fill="#AFABAB"/><path d="M94.0104 335.646C94.7719 335.646 95.3542 335.064 95.3542 334.302L95.3542 331.615C95.3542 330.853 94.7719 330.271 94.0104 330.271 93.249 330.271 92.6667 330.853 92.6667 331.615L92.6667 334.302C92.6667 335.064 93.249 335.646 94.0104 335.646Z" fill="#AFABAB"/><path d="M97.1458 332.958 97.1458 334.302C97.1458 336.049 95.7573 337.438 94.0104 337.438 92.2635 337.438 90.875 336.049 90.875 334.302L90.875 332.958 80.125 332.958 80.125 334.302C80.125 336.049 78.7365 337.438 76.9896 337.438 75.2427 337.438 73.8542 336.049 73.8542 334.302L73.8542 332.958 70.2708 332.958 70.2708 339.229 100.729 339.229 100.729 332.958 97.1458 332.958Z" fill="#AFABAB"/></g></svg>